<?xml version="1.0" encoding="utf-8"?>
<!-- Generator: Adobe Illustrator 25.4.8, SVG Export Plug-In . SVG Version: 6.00 Build 0)  -->
<svg version="1.1" id="Capa_1" xmlns="http://www.w3.org/2000/svg" xmlns:xlink="http://www.w3.org/1999/xlink" x="0px" y="0px"
	 viewBox="0 0 3419.5 1626" style="enable-background:new 0 0 3419.5 1626;" xml:space="preserve">
<style type="text/css">
	.st0{fill:#FFFFFF;}
	.st1{fill:#0B501B;}
</style>
<g>
	<g>
		<path class="st0" d="M279.2,1282.7c-26.4-14.9-57.1-22.3-92.1-22.3c-35.5,0-67.4,7.9-95.7,23.8c-28.3,15.8-50.6,37.6-66.9,65.1
			C8.1,1376.9,0,1408,0,1442.5c0,35.5,8.4,67.2,25.2,95c16.8,27.8,39.8,49.6,69.1,65.1c29.3,15.6,62.8,23.4,100.8,23.4
			c29.8,0,56.9-4.9,81.3-14.8c24.5-9.8,45.3-25.1,62.6-45.7l-61.2-60.4c-10.6,12-22.8,21-36.7,27c-13.9,6-29.3,9-46.1,9
			c-18.7,0-34.9-4-48.6-11.9c-13.7-7.9-24.2-19.3-31.7-34.2c-2.3-4.6-4.3-9.5-5.9-14.6l250.2-1.2c2.4-8.6,3.9-16.4,4.7-23.4
			c0.7-6.9,1.1-13.8,1.1-20.5c0-34.1-7.7-64.3-23-90.7C326.5,1318.3,305.6,1297.6,279.2,1282.7z M143.6,1356.9
			c12.7-8.1,27.7-12.2,45-12.2c15.8,0,29.4,3.6,40.7,10.8c11.3,7.2,19.8,17.4,25.6,30.6c2.3,5.2,4.1,11,5.6,17.2l-151.5,0.9
			c1.4-4.7,3.2-9.2,5.2-13.4C121,1376.3,130.8,1365,143.6,1356.9z"/>
		<path class="st0" d="M626.8,1518.1c-11.3,4.8-24.1,7.2-38.5,7.2c-14.9,0-28.6-3.5-41-10.4c-12.5-6.9-22.2-16.7-29.2-29.1
			c-6.9-12.5-10.4-26.9-10.4-43.2c0-15.8,3.5-29.9,10.4-42.1c6.9-12.2,16.6-21.8,28.8-28.8c12.2-6.9,26-10.4,41.4-10.4
			c13.9,0,26.3,2.2,37.1,6.5c10.8,4.3,20.3,11,28.4,20.2l71.2-72c-17.7-18.2-38-32-60.8-41.4c-22.8-9.4-48.1-14-75.9-14
			c-36.5,0-69.3,7.9-98.6,23.8s-52.3,37.6-69.1,65.1c-16.8,27.6-25.2,58.9-25.2,93.9c0,34.6,8.3,65.7,24.8,93.6
			c16.5,27.8,39.4,49.7,68.7,65.5c29.3,15.8,62.1,23.8,98.6,23.8c28.8,0,54.6-4.9,77.4-14.8c22.8-9.8,43.5-24.3,62.2-43.5
			l-71.2-70.5C647.8,1506.3,638.1,1513.3,626.8,1518.1z"/>
		<path class="st0" d="M1026.8,1284.2c-29-15.8-61.5-23.8-97.5-23.8c-36.9,0-69.8,8-98.6,24.1c-28.8,16.1-51.5,37.8-68,65.1
			c-16.6,27.4-24.8,58.1-24.8,92.1c0,34.5,8.4,65.7,25.2,93.6c16.8,27.8,39.6,49.9,68.4,66.2c28.8,16.3,61.4,24.5,97.9,24.5
			c36.4,0,69.1-8.1,97.9-24.5c28.8-16.3,51.6-38.3,68.4-65.9c16.8-27.6,25.2-58.9,25.2-93.9c0-34.1-8.4-64.9-25.2-92.5
			C1078.7,1321.7,1055.8,1300,1026.8,1284.2z M998,1486.1c-6.5,12.7-15.7,22.4-27.7,29.1c-12,6.7-25.7,10.1-41,10.1
			c-15.3,0-29-3.4-41-10.1c-12-6.7-21.3-16.4-28.1-29.1s-10.1-27.2-10.1-43.5c0-15.4,3.4-29.3,10.1-41.7
			c6.7-12.5,16.1-22.2,28.1-29.1c12-6.9,25.7-10.4,41-10.4c15.4,0,28.9,3.5,40.7,10.4c11.7,7,21,16.6,27.7,28.8
			c6.7,12.2,10.1,26.3,10.1,42.1C1007.7,1458.8,1004.5,1473.3,998,1486.1z"/>
		<path class="st0" d="M1571.5,1308.8c-16.5-8.6-35.1-13-55.5-13c-20.1,0-38.5,4.4-55.2,13.3c-15.7,8.3-28.6,19.6-39,33.9
			c-9.3-14.6-21.6-26-36.9-34.2c-16.1-8.6-34.2-13-54.3-13c-20.1,0-38.2,4.4-54.3,13.3c-10.5,5.7-19.5,12.9-27.2,21.6v-28.9h-65
			v283.4h65v-168.9c0-12.6,2.8-23.3,8.3-32.2c5.5-8.9,12.9-15.6,22.1-20.4c9.2-4.7,19.8-7.1,31.6-7.1c17.3,0,31.9,5.2,43.7,15.6
			c11.8,10.4,17.7,25.1,17.7,44v168.9h64.9v-168.9c0-12.6,2.8-23.3,8.3-32.2c5.5-8.9,13-15.6,22.4-20.4s19.9-7.1,31.3-7.1
			c17.3,0,31.9,5.2,43.7,15.6c11.8,10.4,17.7,25.1,17.7,44v168.9h65v-183c0-22-4.9-40.9-14.8-56.7
			C1601.2,1329.7,1588.1,1317.5,1571.5,1308.8z"/>
		<path class="st0" d="M1869.4,1463.5c0,20.9-5,36.9-15.1,48.1c-10,11.2-24.5,16.8-43.4,16.8c-12.2,0-22.7-2.6-31.6-7.7
			c-8.9-5.1-15.6-12.5-20.1-22.1c-4.5-9.6-6.8-21.3-6.8-35.1v-161.8h-65v164.7c0,24.4,5.2,46,15.6,64.6s25,33.4,43.7,44
			c18.7,10.6,40,15.9,64.1,15.9c24.4,0,45.8-5.2,64.4-15.6c18.5-10.4,33-25,43.4-43.7c10.4-18.7,15.6-40.4,15.6-65.2v-164.7h-65
			L1869.4,1463.5L1869.4,1463.5z"/>
		<path class="st0" d="M2207.2,1312.1c-16.5-10.8-35.4-16.2-56.7-16.2c-20.9,0-39.7,4.8-56.4,14.5c-10.9,6.3-20.2,14.1-28,23.4
			v-31.9h-65v283.4h65v-163.6c0-12.6,2.8-23.8,8.3-33.6c5.5-9.8,13.2-17.5,23-23s21.1-8.3,33.7-8.3c18.9,0,34.3,6.1,46.4,18.3
			c12,12.2,18,27.8,18,46.6v163.6h64.9v-177.7c0-18.5-4.7-36.3-14.2-53.4C2236.8,1336.9,2223.8,1322.9,2207.2,1312.1z"/>
		<path class="st0" d="M2359.3,1171.9c-11,0-20.2,3.7-27.5,11.2c-7.3,7.5-10.9,16.7-10.9,27.8c0,11,3.6,20.3,10.9,27.8
			c7.3,7.5,16.4,11.2,27.5,11.2c11.4,0,20.7-3.7,27.8-11.2c7.1-7.5,10.6-16.7,10.6-27.8s-3.5-20.3-10.6-27.8
			C2380,1175.6,2370.7,1171.9,2359.3,1171.9z"/>
		<rect x="2326.9" y="1301.8" class="st0" width="64.9" height="283.4"/>
		<path class="st0" d="M2668.9,1333.2c-8.2-9.4-17.9-17.3-29.2-23.5c-16.7-9.2-35.9-13.9-57.6-13.9c-25.6,0-48.7,6.6-69.4,19.8
			c-20.7,13.2-37,30.9-49,53.1c-12,22.2-18,47.3-18,75.3c0,27.6,6,52.5,18,74.7c12,22.2,28.4,39.9,49,52.8s43.8,19.5,69.4,19.5
			c21.6,0,40.9-4.6,57.9-13.9c11.2-6.1,20.9-13.8,28.9-23v31h65v-425.1h-65L2668.9,1333.2L2668.9,1333.2L2668.9,1333.2z
			 M2663,1488.3c-6.7,13-16,23.1-28.1,30.4c-12,7.3-26.1,10.9-42.2,10.9c-15.7,0-29.6-3.6-41.6-10.9s-21.5-17.4-28.4-30.4
			c-6.9-13-10.3-27.9-10.3-44.9c0-16.9,3.4-31.9,10.3-44.9c6.9-13,16.3-23.1,28.4-30.4c12-7.3,25.9-10.9,41.6-10.9
			c16.1,0,30.2,3.6,42.2,10.9c12,7.3,21.4,17.4,28.1,30.4c6.7,13,10,27.9,10,44.9C2673,1460.4,2669.7,1475.3,2663,1488.3z"/>
		<path class="st0" d="M3011.4,1333.2c-8.2-9.4-17.9-17.3-29.2-23.5c-16.7-9.2-35.9-13.9-57.6-13.9c-25.6,0-48.7,6.6-69.4,19.8
			c-20.7,13.2-37,30.9-49,53.1c-12,22.2-18,47.3-18,75.3c0,27.6,6,52.5,18,74.7c12,22.2,28.4,39.9,49,52.8s43.8,19.5,69.4,19.5
			c21.6,0,40.9-4.6,57.9-13.9c11.2-6.1,20.9-13.8,28.9-23v31h65v-283.4h-65L3011.4,1333.2L3011.4,1333.2z M2993.4,1505.5
			c-14.8,16.1-34.2,24.2-58.2,24.2c-15.7,0-29.6-3.6-41.6-10.9s-21.5-17.4-28.4-30.4c-6.9-13-10.3-27.9-10.3-44.9
			c0-16.9,3.4-31.9,10.3-44.9c6.9-13,16.3-23.1,28.4-30.4c12-7.3,25.9-10.9,41.6-10.9c16.1,0,30.2,3.6,42.2,10.9
			c12,7.3,21.4,17.4,28,30.4c6.7,13,10,27.9,10,44.9C3015.5,1468.7,3008.1,1489.3,2993.4,1505.5z"/>
		<path class="st0" d="M3354.5,1160.1v173.2c-8.2-9.4-17.9-17.3-29.2-23.5c-16.7-9.2-35.9-13.9-57.6-13.9
			c-25.6,0-48.7,6.6-69.4,19.8c-20.7,13.2-37,30.9-49,53.1c-12,22.2-18,47.3-18,75.3c0,27.6,6,52.5,18,74.7
			c12,22.2,28.4,39.9,49,52.8s43.8,19.5,69.4,19.5c21.6,0,40.9-4.6,57.9-13.9c11.2-6.1,20.9-13.8,28.9-23v31h65v-425.1
			L3354.5,1160.1L3354.5,1160.1z M3348.6,1488.3c-6.7,13-16,23.1-28,30.4c-12,7.3-26.1,10.9-42.2,10.9c-15.7,0-29.6-3.6-41.6-10.9
			c-12-7.3-21.5-17.4-28.4-30.4c-6.9-13-10.3-27.9-10.3-44.9c0-16.9,3.4-31.9,10.3-44.9c6.9-13,16.3-23.1,28.4-30.4
			c12-7.3,25.9-10.9,41.6-10.9c16.1,0,30.2,3.6,42.2,10.9c12,7.3,21.4,17.4,28,30.4c6.7,13,10,27.9,10,44.9
			C3358.7,1460.4,3355.3,1475.3,3348.6,1488.3z"/>
	</g>
	<g>
		<path class="st1" d="M1725.7,1047.7c-38.2,8.7-79.9-15.5-91.6-52.7c-8.9-25.8-3.3-56,14.5-76.8c16.4-19.8,42.8-30.8,68.4-28.2
			c25.9,2.1,50,18,62.5,40.8c11,19.6,13.1,44.1,5.5,65.3C1776.1,1022,1752.7,1042.4,1725.7,1047.7z"/>
		<path class="st1" d="M1991.1,85.2c22.3,23.9,27.4,61.9,11.8,90.7c-33.5,57.7-66.7,115.7-100.1,173.5
			c-10.8,19.4-32.5,31.9-54.8,31.6c-92,0-184.1,0-276.1,0.1c-22.1,0.4-44-11.8-54.8-31.1c-33.1-57.4-66.2-114.9-99.3-172.3
			c-13.1-22.8-13.6-52.1-1.5-75.3c12-24,36.9-40.8,63.6-43.2c30.3-3.2,61.3,12.8,76.4,39.2c40.8,70.2,81.1,140.7,121.9,210.9
			c13.6,22.4,50.5,22.1,63.5-0.7c38.7-66.5,76.9-133.3,115.5-199.9c9.5-18.2,23.6-34.9,43.2-42.7C1930.9,52.1,1969,60.4,1991.1,85.2
			z"/>
		<g>
			<path class="st1" d="M1948.9,987.5c-31.8,7.4-67.3-7.3-84.4-35.2c-33.2-57.9-66.8-115.6-100.2-173.4c-11.4-19.1-11.4-44.1,0-63.2
				c46-79.7,92-159.4,138-239.2c10.7-19.3,32.2-32.2,54.3-31.9c66.3,0,132.6,0.1,198.9,0.1c26.3,0,51.9,14.3,66,36.4
				c14.8,22.4,16.9,52.3,5.6,76.7c-12.4,27.8-41.7,46.7-72.1,46.6c-81.2,0.2-162.4-0.2-243.6,0.2c-26.2,0.6-44.4,32.7-31.1,55.4
				c38.2,66.8,76.9,133.3,115.4,200c11,17.4,18.4,37.9,15.4,58.8C2007.7,951.9,1981.4,980.8,1948.9,987.5z"/>
			<path class="st1" d="M1503.3,987.6c-28,5.9-58.6-4.9-76.8-27.1c-21.1-24.6-24.5-62.3-8.3-90.4c40.2-71.1,82-141.2,122-212.3
				c12.3-24.1-9-55.4-35.8-53.6c-80.1-0.1-160.2,0-240.3,0c-25.4,0-50.4-13.2-64.7-34.3c-13.9-19.7-17.9-45.9-10.8-68.9
				c9.8-33.6,43.7-58.1,78.8-56.4c59.6,0.1,119.3-0.3,178.9-0.1c11.7,0.2,23.7-1.1,35,2.8c15.2,4.7,28.1,15.5,35.9,29.3
				c46,79.7,92.1,159.4,138,239.1c11.5,19.2,11.3,44.3-0.2,63.4c-33.4,57.7-66.9,115.3-100.1,173.1
				C1543.6,970.4,1524.5,983.4,1503.3,987.6z"/>
		</g>
		<path class="st1" d="M2111.4,824.7c-26.5,5.9-55.6-3.3-74.1-23c-19.2-19.7-26.8-49.8-19.3-76.3c8-30,35-53.9,65.8-57.8
			c28.6-4.4,59,8.5,75.8,32.1c16.9,22.9,20.2,55.1,7.7,80.8C2157,803,2135.5,819.7,2111.4,824.7z"/>
		<path class="st1" d="M1340.6,824.8c-26.4,5.8-55.2-3.4-73.9-22.9c-19.8-20.4-27.4-51.8-18.6-78.9c10.6-36.7,50.1-61.7,87.8-55.3
			c37.9,4.8,68.7,40,68.3,78.2C1405.2,783,1377.1,817.9,1340.6,824.8z"/>
		<path class="st1" d="M2114.9,380.1c-23.2,6.1-48.9,0.9-67.9-13.6c-19.6-14.5-31.8-38.5-31.8-62.9c-0.3-21.5,8.6-42.9,23.9-57.8
			c17.4-17.3,43.2-25.8,67.4-21.9c22.8,3.3,44,17,56.1,36.7c12.8,20.2,15.8,46.2,7.6,68.7C2161.9,354,2140.2,373.6,2114.9,380.1z"/>
		<path class="st1" d="M1344.1,379.4c-24.3,6.4-51.4,0-70.6-16.3c-20.1-16.7-31-43.8-28-69.7c2.5-25.5,18.3-49.1,40.8-61.3
			c29.3-16.8,68.9-11.8,93.1,11.7c22.2,20.4,30.9,53.9,21.4,82.5C1392.7,352.2,1370.5,373,1344.1,379.4z"/>
		<path class="st1" d="M1724.2,158.5c-43.8,9.4-89.9-25.1-93.7-69.6c-6.1-43,29.1-85.7,72.3-88.4c43.4-5.1,85.8,31.7,86.7,75.5
			C1792.4,114.8,1762.5,152.2,1724.2,158.5z"/>
		<path class="st1" d="M1811.5,444.4h-202.9c-16.3,0-26.5,17.7-18.4,31.8L1691.6,652c8.2,14.2,28.6,14.2,36.8,0l101.5-175.8
			C1838,462.1,1827.8,444.4,1811.5,444.4z"/>
	</g>
</g>
</svg>
