<?xml version="1.0" encoding="utf-8"?>
<!-- Generator: Adobe Illustrator 25.4.8, SVG Export Plug-In . SVG Version: 6.00 Build 0)  -->
<svg version="1.1" id="Capa_1" xmlns="http://www.w3.org/2000/svg" xmlns:xlink="http://www.w3.org/1999/xlink" x="0px" y="0px"
	 viewBox="0 0 4481.9 844" style="enable-background:new 0 0 4481.9 844;" xml:space="preserve">
<style type="text/css">
	.st0{fill:#FFFFFF;}
	.st1{fill:#0B501B;}
</style>
<g>
	<path class="st0" d="M1341.6,261.5c-26.4-14.9-57.1-22.3-92.1-22.3c-35.5,0-67.4,7.9-95.7,23.8c-27.8,15.3-50.9,37.8-66.9,65.1
		c-16.3,27.6-24.4,58.7-24.4,93.2c0,35.5,8.4,67.2,25.2,95c16.8,27.8,39.8,49.6,69.1,65.1c29.3,15.6,62.8,23.4,100.8,23.4
		c29.8,0,56.9-4.9,81.3-14.8c24.4-9.8,45.9-25.5,62.6-45.7l-61.2-60.4c-10.1,11.6-22.6,20.9-36.7,27c-13.9,6-29.3,9-46.1,9
		c-18.7,0-34.9-4-48.6-11.9s-24.2-19.3-31.7-34.2c-2.3-4.7-4.3-9.6-5.9-14.6l250.2-1.2c2.2-7.6,3.8-15.5,4.7-23.4
		c0.7-6.8,1.1-13.7,1.1-20.5c0-34.1-7.7-64.3-23-90.7C1389.3,297.5,1367.7,276.1,1341.6,261.5z M1205.9,335.6
		c12.7-8.2,27.7-12.2,45-12.2c15.8,0,29.4,3.6,40.7,10.8c11.3,7.2,19.8,17.4,25.6,30.6c2.4,5.6,4.2,11.3,5.6,17.2l-151.5,0.9
		c1.4-4.6,3.1-9.1,5.2-13.4C1182.9,355.6,1193.1,343.9,1205.9,335.6z"/>
	<path class="st0" d="M1689.1,496.8c-11.3,4.8-24.1,7.2-38.5,7.2c-14.3,0.1-28.5-3.5-41-10.4c-12.3-6.7-22.4-16.9-29.2-29.1
		c-6.9-12.5-10.4-26.9-10.4-43.2c0-15.8,3.5-29.9,10.4-42.1c6.8-12.1,16.7-22,28.8-28.8c12.2-6.9,26-10.4,41.4-10.4
		c13.9,0,26.3,2.2,37.1,6.5c10.9,4.4,20.6,11.3,28.4,20.1l71.2-72c-17.2-17.8-37.9-31.9-60.8-41.4c-22.8-9.3-48.1-14-75.9-14
		c-36.5,0-69.3,7.9-98.6,23.8s-52.3,37.6-69.1,65.1c-16.8,27.6-25.2,58.9-25.2,93.9c0,34.6,8.3,65.7,24.8,93.6s39.4,49.6,68.7,65.4
		c29.3,15.8,62.1,23.8,98.6,23.8c28.8,0,54.6-4.9,77.4-14.8s43.6-24.4,62.2-43.5l-71.2-70.5C1710.2,485,1700.3,492.1,1689.1,496.8z"
		/>
	<path class="st0" d="M2089.1,262.9c-29-15.8-61.5-23.8-97.5-23.8c-36.9,0-69.8,8-98.6,24.1s-51.4,37.8-68,65.1
		c-16.6,27.3-24.8,58-24.8,92.1c0,34.5,8.4,65.7,25.2,93.6c16.6,27.7,40.2,50.5,68.4,66.2c28.8,16.3,61.4,24.5,97.9,24.5
		c36.5,0,69.1-8.2,97.9-24.5c28.8-16.3,51.6-38.2,68.4-65.8c16.8-27.6,25.2-58.9,25.2-93.9c0-34.1-8.4-64.9-25.2-92.5
		C2141.1,300.5,2118.2,278.8,2089.1,262.9z M2060.4,464.8c-6.1,12.3-15.7,22.4-27.7,29.1c-12,6.7-25.7,10.1-41,10.1s-29-3.4-41-10.1
		c-12-6.7-21.8-16.9-28.1-29.1c-6.7-12.7-10.1-27.2-10.1-43.5c0-15.3,3.4-29.2,10.1-41.7c6.4-12.2,16.1-22.3,28.1-29.1
		c12-6.9,25.7-10.4,41-10.4s28.9,3.5,40.7,10.4c11.7,6.9,21.3,16.9,27.7,28.8c6.7,12.2,10.1,26.3,10.1,42.1
		C2070.1,437.6,2066.8,452.1,2060.4,464.8z"/>
	<path class="st0" d="M2633.9,287.6c-16.5-8.7-35-13-55.5-13c-20.1,0-38.5,4.4-55.2,13.3c-15.5,8.1-28.8,19.7-39,33.9
		c-9.1-14.4-21.8-26.2-36.9-34.2c-16.1-8.7-34.3-13-54.3-13s-38.2,4.4-54.3,13.3c-10.2,5.6-19.4,12.8-27.2,21.6v-28.9h-65v283.4h65
		V395.1c0-12.6,2.8-23.3,8.3-32.2c5.4-8.7,13-15.8,22.1-20.4c9.2-4.7,19.8-7.1,31.6-7.1c17.3,0,31.9,5.2,43.7,15.6
		s17.7,25.1,17.7,44v168.9h64.9V395.1c0-12.6,2.8-23.3,8.3-32.2c5.4-8.8,13.2-15.8,22.4-20.4c9.7-4.8,20.4-7.2,31.3-7.1
		c17.3,0,31.9,5.2,43.7,15.6s17.7,25.1,17.7,44v168.9h65v-183c0-22-4.9-40.9-14.8-56.7C2663.8,308.7,2650.1,296,2633.9,287.6z"/>
	<path class="st0" d="M2931.7,442.3c0,20.9-5,36.9-15.1,48.1s-24.5,16.8-43.4,16.8c-12.2,0-22.8-2.6-31.6-7.7
		c-8.8-5.1-15.9-12.9-20.1-22.1c-4.5-9.6-6.8-21.4-6.8-35.1V280.5h-65v164.7c0,24.4,5.2,46,15.6,64.6c10.2,18.4,25.3,33.7,43.7,44
		c18.7,10.6,40,15.9,64.1,15.9c24.4,0,45.8-5.2,64.3-15.6c18.3-10.2,33.3-25.3,43.4-43.7c10.4-18.7,15.6-40.4,15.6-65.2V280.5h-65
		L2931.7,442.3z"/>
	<path class="st0" d="M3269.6,290.8c-16.5-10.8-35.4-16.2-56.7-16.2c-20.9,0-39.7,4.8-56.4,14.5c-10.6,6.1-20.1,14-28,23.3v-31.9
		h-65v283.4h65V400.4c0-12.6,2.8-23.8,8.3-33.6c5.4-9.7,13.3-17.6,23-23c9.8-5.5,21.1-8.3,33.7-8.3c18.9,0,34.4,6.1,46.4,18.3
		c12,12.2,18,27.8,18,46.6v163.6h64.9V386.2c0-18.5-4.7-36.3-14.2-53.4C3299.2,315.8,3285.8,301.4,3269.6,290.8z"/>
	<path class="st0" d="M3421.7,150.6c-11,0-20.2,3.7-27.5,11.2s-10.9,16.7-10.9,27.8c0,11,3.6,20.3,10.9,27.8s16.4,11.2,27.5,11.2
		c11.4,0,20.7-3.7,27.8-11.2s10.6-16.7,10.6-27.8c0-11-3.5-20.3-10.6-27.8S3433.1,150.6,3421.7,150.6z"/>
	<rect x="3389.2" y="280.5" class="st0" width="64.9" height="283.4"/>
	<path class="st0" d="M3731.2,312c-8.3-9.5-18.2-17.5-29.2-23.5c-16.7-9.2-35.9-13.9-57.6-13.9c-25.6,0-48.7,6.6-69.4,19.8
		c-20.7,13.2-37.5,31.5-49,53.1c-12,22.2-18,47.3-18,75.3c0,27.6,6,52.5,18,74.7c11.4,21.6,28.3,39.8,49,52.8
		c20.7,13,43.8,19.5,69.4,19.5c21.6,0,40.9-4.6,57.9-13.9c10.9-5.9,20.7-13.7,28.9-23v31h65V138.9h-65V312z M3725.3,467.1
		c-6.3,12.6-16,23.1-28,30.4c-12,7.3-26.1,10.9-42.2,10.9c-15.7,0-29.6-3.6-41.6-10.9c-12.1-7.3-21.9-17.9-28.3-30.4
		c-6.9-13-10.3-27.9-10.3-44.9c0-16.9,3.5-31.9,10.3-44.9c6.5-12.6,16.3-23.1,28.3-30.4c12-7.3,25.9-10.9,41.6-10.9
		c16.1,0,30.2,3.6,42.2,10.9c12,7.3,21.7,17.8,28,30.4c6.7,13,10,27.9,10,44.9C3735.3,439.2,3732,454.1,3725.3,467.1L3725.3,467.1z"
		/>
	<path class="st0" d="M4073.7,312c-8.3-9.5-18.2-17.5-29.2-23.5c-16.7-9.2-35.9-13.9-57.6-13.9c-25.6,0-48.7,6.6-69.4,19.8
		c-20.6,13.2-37.5,31.5-49,53.1c-12,22.2-18,47.3-18,75.3c0,27.6,6,52.5,18,74.7s28.3,39.9,49,52.8s43.8,19.5,69.4,19.5
		c21.6,0,40.9-4.6,57.9-13.9c10.9-5.9,20.7-13.7,28.9-23v31h65V280.6h-65V312z M4055.7,484.2c-14.8,16.1-34.1,24.2-58.2,24.2
		c-15.8,0-29.6-3.6-41.6-10.9c-12.1-7.3-21.9-17.9-28.3-30.4c-6.9-13-10.3-27.9-10.3-44.9s3.4-31.9,10.3-44.9
		c6.5-12.6,16.3-23.1,28.3-30.4c12-7.3,25.9-10.9,41.6-10.9c16.1,0,30.2,3.6,42.2,10.9c12,7.3,21.7,17.8,28,30.4
		c6.7,13,10,27.9,10,44.9C4077.9,447.4,4070.5,468.1,4055.7,484.2L4055.7,484.2z"/>
	<path class="st0" d="M4416.9,138.8V312c-8.3-9.5-18.2-17.5-29.2-23.5c-16.7-9.2-35.9-13.9-57.6-13.9c-25.6,0-48.7,6.6-69.4,19.8
		c-20.7,13.2-37.5,31.5-49,53.1c-12,22.2-18,47.3-18,75.3c0,27.6,6,52.5,18,74.7c11.4,21.6,28.3,39.8,49,52.8
		c20.7,13,43.8,19.5,69.4,19.5c21.6,0,40.9-4.6,57.9-13.9c10.9-5.9,20.7-13.7,28.9-23v31h65V138.9L4416.9,138.8z M4411,467.1
		c-6.3,12.6-16,23.1-28,30.4c-12,7.3-26.1,10.9-42.2,10.9c-15.7,0-29.6-3.6-41.6-10.9c-12.1-7.3-21.9-17.9-28.4-30.4
		c-6.9-13-10.3-27.9-10.3-44.9s3.4-31.9,10.3-44.9c6.5-12.6,16.3-23.1,28.4-30.4c12-7.3,25.9-10.9,41.6-10.9
		c16.1,0,30.2,3.6,42.2,10.9c12,7.3,21.7,17.9,28,30.4c6.7,13,10,27.9,10,44.9S4417.6,454.1,4411,467.1z"/>
	<path class="st1" d="M434.7,842.6c-30.7,7-64.2-12.4-73.7-42.4c-7.1-20.8-2.6-45.1,11.7-61.8c13.5-16.1,34.1-24.6,55-22.6
		c20.8,1.7,40.2,14.5,50.3,32.8c8.9,16.1,10.5,35.2,4.4,52.5C475.3,821.9,456.4,838.3,434.7,842.6z"/>
	<path class="st1" d="M648.2,68.5c18,19.2,22,49.8,9.4,72.9c-27,46.4-53.6,93-80.5,139.5c-9,15.8-25.8,25.5-44,25.4
		c-74,0-148,0-222.1,0.1c-17.8,0.3-35.4-9.5-44.1-25c-26.7-46.2-53.3-92.4-79.9-138.6c-10.6-18.3-10.9-41.9-1.2-60.6
		c9.6-19.3,29.7-32.8,51.2-34.7c24.3-2.6,49.3,10.3,61.5,31.5c32.8,56.5,65.2,113.2,98.1,169.6c10.9,18,40.6,17.8,51.1-0.6
		c31.1-53.5,61.9-107.2,92.9-160.8c7.7-14.7,19-28,34.7-34.4C599.7,41.9,630.4,48.5,648.2,68.5z"/>
	<path class="st1" d="M614.2,794.1c-25.6,5.9-54.1-5.9-67.9-28.3c-26.7-46.6-53.7-93-80.6-139.4c-9.2-15.7-9.2-35.1,0-50.8
		c37-64.1,74-128.2,111-192.3c8.6-15.5,25.9-25.9,43.7-25.7l159.9,0.1c21.1,0,41.7,11.5,53.1,29.3c11.9,18,13.6,42.1,4.5,61.6
		c-9.9,22.4-33.6,37.5-58,37.5c-65.3,0.2-130.6-0.1-195.9,0.1c-21.1,0.4-35.7,26.3-25,44.5c30.8,53.7,61.9,107.2,92.8,160.8
		c8.9,14,14.8,30.5,12.4,47.3C661.5,765.5,640.4,788.7,614.2,794.1z"/>
	<path class="st1" d="M255.9,794.2c-22.5,4.7-47.2-4-61.8-21.8c-17-19.8-19.7-50.1-6.7-72.7c32.3-57.2,65.9-113.6,98.1-170.8
		c9.9-19.4-7.2-44.5-28.8-43.1c-64.4-0.1-128.8-0.1-193.2,0C28.1,485.5-0.4,456.5,0,421c0.1-6.1,1-12.3,2.8-18.1
		c7.9-27,35.2-46.7,63.3-45.3c48,0.1,96-0.2,143.9-0.1c9.4,0.1,19.1-0.9,28.2,2.2c12.2,3.9,22.6,12.3,28.8,23.5
		c37,64.1,74,128.2,111,192.3c9.2,15.8,9.1,35.2-0.1,50.9c-26.8,46.4-53.8,92.8-80.5,139.2C288.1,780.5,273.1,790.8,255.9,794.2z"/>
	<path class="st1" d="M744.9,663.3c-21.3,4.8-44.7-2.6-59.6-18.5c-15.6-16.3-21.4-39.6-15.5-61.4c6.4-24.1,28.1-43.3,52.9-46.5
		c23-3.5,47.4,6.9,60.9,25.8c13.6,18.4,16.2,44.3,6.2,64.9C781.2,645.9,764.6,659.1,744.9,663.3z"/>
	<path class="st1" d="M125,663.3c-21.2,4.7-44.4-2.7-59.4-18.4c-16-16.4-22-41.6-15-63.5c8.5-29.5,40.3-49.6,70.6-44.5
		c30.5,3.9,55.3,32.2,54.9,62.9C177,629.7,154.3,657.8,125,663.3z"/>
	<path class="st1" d="M747.7,305.7c-34.3,8.9-69.4-11.7-78.3-46.1c-8.9-34.3,11.7-69.4,46.1-78.3c34.3-8.9,69.4,11.7,78.3,46.1
		c3.2,12.3,2.7,25.3-1.5,37.3C785.5,284.7,768.1,300.5,747.7,305.7z"/>
	<path class="st1" d="M127.8,305.1c-34.4,8.6-69.2-12.4-77.8-46.8c-7-28.2,5.8-57.7,31.3-71.7c23.6-13.5,55.5-9.5,74.9,9.4
		c17.8,16.4,24.9,43.4,17.2,66.4C166.6,283.5,149.3,299.7,127.8,305.1z"/>
	<path class="st1" d="M433.5,127.5c-35.2,7.5-72.3-20.2-75.4-56c-4.9-34.6,23.4-69,58.2-71.1c35-4.1,69,25.5,69.7,60.7
		C488.4,92.3,464.3,122.4,433.5,127.5z"/>
	<path class="st1" d="M503.7,357.4H340.5c-9.4,0-17.1,7.6-17.1,17.1c0,3,0.8,5.9,2.3,8.5l81.6,141.3c4.7,8.2,15.2,11,23.3,6.2
		c2.6-1.5,4.7-3.6,6.2-6.2L518.5,383c4.7-8.2,1.9-18.6-6.3-23.3C509.6,358.2,506.7,357.4,503.7,357.4z"/>
</g>
</svg>
