<?xml version="1.0" encoding="utf-8"?>
<!-- Generator: Adobe Illustrator 25.4.8, SVG Export Plug-In . SVG Version: 6.00 Build 0)  -->
<svg version="1.1" id="Capa_1" xmlns="http://www.w3.org/2000/svg" xmlns:xlink="http://www.w3.org/1999/xlink" x="0px" y="0px"
	 viewBox="0 0 5669.29 4251.97" style="enable-background:new 0 0 5669.29 4251.97;" xml:space="preserve">
<style type="text/css">
	.st0{fill:#FFFFFF;}
	.st1{fill:#0B501B;}
</style>
<path class="st0" d="M1935.28,1965.49c-26.39-14.86-57.09-22.3-92.11-22.31c-35.52,0-67.43,7.92-95.73,23.76
	c-27.76,15.3-50.89,37.8-66.94,65.13c-16.3,27.59-24.45,58.65-24.45,93.2c0,35.5,8.4,67.17,25.19,95
	c16.79,27.83,39.82,49.55,69.08,65.14c29.26,15.58,62.84,23.37,100.75,23.38c29.75,0,56.86-4.92,81.32-14.75
	c24.37-9.75,45.9-25.46,62.61-45.7l-61.16-60.45c-10.06,11.63-22.6,20.86-36.7,27c-13.93,6-29.29,9-46.07,9
	c-18.71,0-34.9-3.96-48.57-11.88s-24.22-19.31-31.66-34.18c-2.35-4.71-4.32-9.61-5.87-14.64l250.2-1.19
	c2.2-7.65,3.76-15.48,4.67-23.39c0.7-6.81,1.06-13.66,1.07-20.51c0-34.06-7.67-64.29-23-90.68
	C1983.02,2001.49,1961.37,1980.09,1935.28,1965.49z M1799.62,2039.62c12.7-8.15,27.7-12.22,45-12.23c15.82,0,29.37,3.6,40.66,10.8
	c11.29,7.2,19.8,17.39,25.55,30.58c2.38,5.55,4.25,11.31,5.59,17.2l-151.5,0.86c1.39-4.59,3.13-9.06,5.2-13.38
	C1776.57,2059.62,1786.8,2047.9,1799.62,2039.62z"/>
<path class="st0" d="M2282.86,2200.83c-11.28,4.81-24.11,7.21-38.5,7.2c-14.34,0.13-28.47-3.46-41-10.44
	c-12.29-6.74-22.41-16.85-29.16-29.14c-6.95-12.47-10.43-26.86-10.44-43.18c0-15.84,3.48-29.87,10.44-42.1
	c6.77-12.06,16.74-22.02,28.8-28.79c12.23-6.95,26.02-10.43,41.37-10.44c13.91,0,26.26,2.16,37.06,6.48
	c10.92,4.4,20.65,11.3,28.42,20.15l71.25-72c-17.19-17.84-37.89-31.93-60.8-41.38c-22.8-9.33-48.11-14-75.93-14
	c-36.47,0-69.34,7.92-98.6,23.76c-29.26,15.84-52.29,37.55-69.08,65.13c-16.8,27.59-25.2,58.89-25.19,93.91
	c0,34.55,8.28,65.74,24.84,93.56c16.56,27.82,39.45,49.64,68.66,65.45c29.27,15.84,62.13,23.76,98.6,23.75
	c28.78,0,54.57-4.92,77.37-14.75s43.55-24.35,62.25-43.54L2312,2180C2303.95,2189.02,2294,2196.13,2282.86,2200.83z"/>
<path class="st0" d="M2682.86,1966.94c-29.03-15.84-61.54-23.76-97.52-23.76c-36.95,0-69.82,8.04-98.59,24.12
	c-28.77,16.08-51.44,37.79-68,65.13c-16.56,27.33-24.84,58.04-24.83,92.12c0,34.54,8.4,65.73,25.19,93.56
	c16.61,27.66,40.18,50.49,68.36,66.2c28.78,16.32,61.4,24.48,97.87,24.47c36.47-0.01,69.09-8.16,97.88-24.47
	c28.79-16.3,51.59-38.25,68.38-65.84c16.79-27.59,25.18-58.9,25.17-93.92c0-34.07-8.39-64.9-25.17-92.48
	C2734.82,2004.49,2711.91,1982.78,2682.86,1966.94z M2654.08,2168.81c-6.08,12.29-15.74,22.45-27.71,29.14
	c-12,6.73-25.67,10.09-41,10.08c-15.33-0.01-29-3.37-41-10.08c-12.02-6.74-21.79-16.88-28.07-29.14
	c-6.71-12.71-10.07-27.23-10.07-43.54c0-15.33,3.36-29.25,10.07-41.74c6.42-12.17,16.15-22.27,28.07-29.15
	c12-6.95,25.67-10.43,41-10.44s28.89,3.47,40.67,10.44c11.69,6.89,21.27,16.85,27.71,28.79c6.7,12.23,10.06,26.27,10.07,42.1
	C2663.8,2141.58,2660.55,2156.09,2654.08,2168.81z"/>
<path class="st0" d="M3227.59,1991.59c-16.54-8.67-35.04-13-55.51-13c-20.07,0-38.47,4.43-55.21,13.29
	c-15.47,8.11-28.82,19.73-39,33.93c-9.11-14.43-21.83-26.23-36.9-34.23c-16.15-8.67-34.26-13-54.32-13s-38.16,4.43-54.31,13.29
	c-10.24,5.56-19.43,12.85-27.16,21.56v-28.94h-65v283.4h65v-168.84c0-12.6,2.75-23.33,8.26-32.18c5.35-8.71,13.01-15.77,22.14-20.37
	c9.23-4.72,19.78-7.09,31.58-7.09c17.33,0,31.9,5.22,43.7,15.65c11.8,10.43,17.7,25.1,17.71,44v168.86h64.94v-168.87
	c0-12.6,2.75-23.33,8.26-32.18c5.42-8.77,13.2-15.83,22.45-20.37c9.73-4.79,20.45-7.22,31.3-7.09c17.33,0,31.89,5.22,43.68,15.65
	c11.79,10.43,17.69,25.1,17.71,44v168.86h65v-183c0-22.04-4.92-40.93-14.75-56.68C3257.52,2012.68,3243.84,2000.01,3227.59,1991.59z
	"/>
<path class="st0" d="M3525.45,2146.29c0,20.86-5.02,36.9-15.06,48.11s-24.5,16.82-43.39,16.83c-12.21,0-22.75-2.56-31.6-7.67
	c-8.84-5.1-15.86-12.85-20.07-22.15c-4.52-9.64-6.78-21.35-6.79-35.12v-161.78h-65v164.73c0,24.41,5.21,45.96,15.64,64.65
	c10.18,18.45,25.32,33.69,43.7,44c18.67,10.62,40.02,15.93,64.07,15.93c24.39,0,45.84-5.22,64.34-15.65
	c18.29-10.2,33.33-25.34,43.41-43.69c10.41-18.67,15.62-40.41,15.65-65.23v-164.74h-65L3525.45,2146.29z"/>
<path class="st0" d="M3863.3,1994.84c-16.54-10.82-35.43-16.23-56.68-16.24c-20.88,0-39.68,4.82-56.4,14.47
	c-10.63,6.08-20.11,13.99-28,23.35v-31.91h-65v283.4h65v-163.55c0-12.59,2.75-23.81,8.26-33.65c5.35-9.68,13.32-17.65,23-23
	c9.84-5.5,21.06-8.26,33.66-8.27c18.9,0,34.35,6.1,46.35,18.31c12,12.21,18,27.75,18,46.64v163.55h64.94v-177.75
	c0-18.5-4.72-36.31-14.17-53.43C3892.94,2019.78,3879.56,2005.37,3863.3,1994.84z"/>
<path class="st0" d="M4015.39,1854.61c-11.03,0-20.18,3.74-27.46,11.22c-7.28,7.48-10.92,16.73-10.93,27.75
	c0,11.03,3.64,20.28,10.92,27.75c7.28,7.47,16.43,11.21,27.46,11.22c11.41,0,20.66-3.74,27.75-11.22s10.63-16.73,10.62-27.75
	c0-11.02-3.54-20.27-10.62-27.75S4026.8,1854.61,4015.39,1854.61z"/>
<rect x="3982.92" y="1984.51" class="st0" width="64.94" height="283.4"/>
<path class="st0" d="M4324.93,2016c-8.27-9.5-18.17-17.47-29.22-23.52c-16.74-9.24-35.93-13.86-57.57-13.87
	c-25.59,0-48.72,6.59-69.37,19.78c-20.66,13.18-37.54,31.49-49,53.14c-12,22.24-18,47.33-18,75.27c0,27.56,6,52.46,18,74.7
	c11.41,21.61,28.31,39.83,49,52.84c20.67,12.99,43.79,19.49,69.37,19.48c21.65,0,40.94-4.62,57.87-13.87
	c10.93-5.89,20.72-13.67,28.92-23v31h65v-425.1h-65V2016z M4319.03,2171.09c-6.31,12.57-16.03,23.11-28.05,30.41
	c-12,7.28-26.07,10.92-42.22,10.92c-15.74,0-29.61-3.64-41.62-10.92c-12.06-7.34-21.87-17.86-28.34-30.41
	c-6.89-12.99-10.34-27.94-10.33-44.87c0.01-16.93,3.45-31.88,10.33-44.87c6.47-12.55,16.28-23.07,28.34-30.41
	c12-7.28,25.87-10.92,41.62-10.92c16.14,0,30.21,3.64,42.22,10.92c12.02,7.3,21.74,17.84,28.05,30.41c6.67,12.98,10,27.94,10,44.87
	c0,16.93-3.34,31.89-10.03,44.86L4319.03,2171.09z"/>
<path class="st0" d="M4667.43,2016c-8.27-9.51-18.17-17.47-29.22-23.52c-16.74-9.24-35.93-13.86-57.57-13.87
	c-25.59,0-48.72,6.59-69.37,19.78c-20.65,13.18-37.54,31.49-49,53.14c-12,22.24-18,47.33-18,75.27c0,27.56,6,52.46,18,74.7
	s28.33,39.85,49,52.84c20.67,12.99,43.79,19.49,69.37,19.48c21.65,0,40.94-4.62,57.87-13.87c10.93-5.89,20.72-13.67,28.92-23v31h65
	v-283.4h-65V2016z M4649.43,2188.21c-14.76,16.15-34.15,24.22-58.16,24.21c-15.75,0-29.62-3.64-41.63-10.92
	c-12.06-7.34-21.87-17.86-28.34-30.41c-6.87-12.99-10.3-27.95-10.3-44.88s3.44-31.88,10.33-44.87
	c6.47-12.55,16.28-23.07,28.34-30.41c12-7.28,25.88-10.92,41.63-10.92c16.13,0,30.2,3.64,42.21,10.92
	c12.02,7.3,21.74,17.84,28.05,30.41c6.67,12.98,10,27.94,10,44.87c0.01,25.19-7.37,45.86-22.13,61.99V2188.21z"/>
<path class="st0" d="M5010.59,1842.81V2016c-8.27-9.5-18.17-17.47-29.22-23.52c-16.74-9.24-35.93-13.86-57.57-13.87
	c-25.6,0-48.72,6.59-69.37,19.78c-20.66,13.17-37.54,31.48-49,53.14c-12,22.24-18,47.33-18,75.27c0,27.56,6,52.46,18,74.7
	c11.41,21.61,28.31,39.83,49,52.84c20.67,12.99,43.79,19.49,69.37,19.48c21.65,0,40.94-4.62,57.87-13.87
	c10.93-5.89,20.72-13.67,28.92-23v31h65v-425.1L5010.59,1842.81z M5004.69,2171.08c-6.29,12.56-16,23.1-28,30.41
	c-12,7.28-26.07,10.92-42.22,10.92c-15.74,0-29.61-3.64-41.62-10.92c-12.06-7.34-21.87-17.86-28.35-30.41
	c-6.88-12.99-10.32-27.94-10.32-44.87s3.44-31.88,10.32-44.87c6.48-12.55,16.29-23.07,28.35-30.41c12-7.28,25.87-10.92,41.62-10.92
	c16.14,0,30.21,3.64,42.22,10.92c12,7.31,21.71,17.85,28,30.41c6.67,12.98,10,27.94,10,44.87S5011.36,2158.1,5004.69,2171.08z"/>
<path class="st1" d="M1028.45,2546.55c-30.73,7-64.21-12.45-73.71-42.4c-7.11-20.77-2.64-45.07,11.69-61.79
	c13.51-16.11,34.06-24.58,55-22.65c20.82,1.68,40.23,14.49,50.27,32.78c8.92,16.06,10.52,35.17,4.4,52.49
	C1069,2525.91,1050.13,2542.28,1028.45,2546.55z"/>
<path class="st1" d="M1241.87,1772.52c18,19.2,22,49.82,9.45,72.92c-27,46.43-53.63,93-80.46,139.51c-9,15.8-25.82,25.51-44,25.39
	c-74,0-148.02,0.02-222.06,0.05c-17.75,0.34-35.4-9.46-44.06-25c-26.67-46.2-53.3-92.39-79.89-138.57
	c-10.57-18.31-10.91-41.87-1.19-60.6c9.63-19.33,29.66-32.8,51.16-34.7c24.34-2.57,49.29,10.3,61.47,31.5
	c32.78,56.47,65.19,113.17,98.06,169.58c10.91,18,40.58,17.77,51.07-0.58c31.12-53.49,61.89-107.19,92.9-160.77
	c7.66-14.66,19-28,34.74-34.37C1193.42,1745.88,1224.11,1752.53,1241.87,1772.52z"/>
<path class="st1" d="M1207.91,2498.13c-25.61,5.94-54.14-5.86-67.88-28.28c-26.73-46.56-53.75-93-80.59-139.44
	c-9.2-15.69-9.2-35.13,0-50.82c36.99-64.11,73.99-128.22,111-192.34c8.58-15.53,25.9-25.92,43.69-25.66l159.95,0.11
	c21.13,0,41.72,11.48,53.07,29.27c11.93,18,13.57,42.09,4.47,61.65c-9.94,22.37-33.56,37.54-58,37.48
	c-65.29,0.16-130.61-0.13-195.89,0.13c-21.06,0.45-35.68,26.27-25,44.52c30.76,53.7,61.89,107.2,92.78,160.84
	c8.87,14,14.78,30.5,12.4,47.27C1255.2,2469.49,1234.09,2492.74,1207.91,2498.13z"/>
<path class="st1" d="M849.61,2498.23c-22.55,4.74-47.16-4-61.78-21.76c-17-19.8-19.72-50.09-6.7-72.66
	c32.31-57.16,65.92-113.6,98.12-170.78c9.91-19.41-7.22-44.52-28.78-43.14c-64.39-0.07-128.8-0.07-193.22,0
	c-35.45-0.36-63.89-29.4-63.53-64.85c0.06-6.15,1.01-12.27,2.82-18.15c7.9-27,35.16-46.72,63.35-45.33c48,0.1,96-0.21,143.92-0.11
	c9.42,0.13,19.09-0.86,28.15,2.23c12.25,3.91,22.56,12.32,28.85,23.54c36.96,64.11,73.96,128.22,111,192.31
	c9.19,15.75,9.14,35.24-0.13,50.95c-26.84,46.43-53.81,92.75-80.49,139.21C881.81,2484.48,866.78,2494.79,849.61,2498.23z"/>
<path class="st1" d="M1338.59,2367.27c-21.32,4.76-44.67-2.65-59.61-18.5c-15.55-16.33-21.44-39.6-15.51-61.36
	c6.43-24.14,28.12-43.32,52.94-46.51c23-3.53,47.45,6.85,60.92,25.79c13.6,18.44,16.24,44.31,6.17,64.95
	C1374.95,2349.9,1358.32,2363.09,1338.59,2367.27z"/>
<path class="st1" d="M718.72,2367.29c-21.21,4.71-44.41-2.74-59.4-18.41c-16-16.4-22-41.64-15-63.46
	c8.5-29.48,40.28-49.65,70.57-44.47c30.47,3.85,55.27,32.18,54.93,62.91C770.7,2333.68,748,2361.77,718.72,2367.29z"/>
<path class="st1" d="M1341.42,2009.67c-34.35,8.89-69.4-11.74-78.29-46.08c-8.89-34.35,11.74-69.4,46.08-78.29
	c34.35-8.89,69.4,11.74,78.29,46.08c3.19,12.31,2.65,25.29-1.54,37.29C1379.24,1988.72,1361.82,2004.47,1341.42,2009.67z"/>
<path class="st1" d="M721.52,2009.07c-34.4,8.56-69.23-12.38-77.8-46.78c-7.03-28.23,5.81-57.65,31.28-71.71
	c23.57-13.47,55.45-9.5,74.91,9.44c17.84,16.38,24.88,43.37,17.21,66.36C760.29,1987.52,743.06,2003.65,721.52,2009.07z"/>
<path class="st1" d="M1027.25,1831.46c-35.18,7.54-72.33-20.21-75.39-56c-4.86-34.55,23.39-69,58.15-71.09
	c35-4.08,69,25.53,69.71,60.68C1082.07,1796.28,1058,1826.39,1027.25,1831.46z"/>
<path class="st1" d="M1097.39,2061.41h-163.2c-9.43,0-17.07,7.65-17.06,17.08c0,2.99,0.79,5.93,2.28,8.52l81.6,141.34
	c4.72,8.16,15.16,10.96,23.32,6.24c2.59-1.5,4.74-3.65,6.24-6.24l81.6-141.34c4.71-8.17,1.91-18.6-6.26-23.32
	C1103.32,2062.2,1100.38,2061.41,1097.39,2061.41z"/>
</svg>
