<svg id="Capa_1" data-name="Capa 1" xmlns="http://www.w3.org/2000/svg" viewBox="0 0 5669.29 4251.97"><defs><style>.cls-1{fill:#0b501b;}.cls-2{fill:#00c653;}</style></defs><path class="cls-1" d="M1935.28,1965.49q-39.58-22.29-92.11-22.31-53.28,0-95.73,23.76a176.25,176.25,0,0,0-66.94,65.13q-24.45,41.38-24.45,93.2,0,53.25,25.19,95t69.08,65.14q43.89,23.37,100.75,23.38,44.63,0,81.32-14.75a156.64,156.64,0,0,0,62.61-45.7l-61.16-60.45a102.84,102.84,0,0,1-36.7,27q-20.9,9-46.07,9-28.07,0-48.57-11.88t-31.66-34.18a96.38,96.38,0,0,1-5.87-14.64l250.2-1.19a144.59,144.59,0,0,0,4.67-23.39,201.82,201.82,0,0,0,1.07-20.51q0-51.09-23-90.68A165.37,165.37,0,0,0,1935.28,1965.49Zm-135.66,74.13q19.05-12.22,45-12.23,23.73,0,40.66,10.8t25.55,30.58a99.1,99.1,0,0,1,5.59,17.2l-151.5.86a94.55,94.55,0,0,1,5.2-13.38A81.08,81.08,0,0,1,1799.62,2039.62Z"/><path class="cls-1" d="M2282.86,2200.83q-16.92,7.22-38.5,7.2a82.7,82.7,0,0,1-41-10.44,73.77,73.77,0,0,1-29.16-29.14q-10.43-18.7-10.44-43.18,0-23.76,10.44-42.1a75.29,75.29,0,0,1,28.8-28.79q18.35-10.43,41.37-10.44,20.86,0,37.06,6.48a75.3,75.3,0,0,1,28.42,20.15l71.25-72a179.44,179.44,0,0,0-60.8-41.38q-34.2-14-75.93-14-54.71,0-98.6,23.76t-69.08,65.13q-25.2,41.38-25.19,93.91,0,51.83,24.84,93.56T2145,2285q43.9,23.76,98.6,23.75,43.17,0,77.37-14.75t62.25-43.54L2312,2180A81.49,81.49,0,0,1,2282.86,2200.83Z"/><path class="cls-1" d="M2682.86,1966.94q-43.55-23.76-97.52-23.76-55.43,0-98.59,24.12t-68,65.13q-24.84,41-24.83,92.12,0,51.81,25.19,93.56a184.62,184.62,0,0,0,68.36,66.2q43.17,24.48,97.87,24.47t97.88-24.47q43.19-24.45,68.38-65.84t25.17-93.92q0-51.11-25.17-92.48T2682.86,1966.94Zm-28.78,201.87a67.89,67.89,0,0,1-27.71,29.14q-18,10.1-41,10.08t-41-10.08a70,70,0,0,1-28.07-29.14q-10.07-19.07-10.07-43.54,0-23,10.07-41.74a73,73,0,0,1,28.07-29.15q18-10.43,41-10.44t40.67,10.44a74.49,74.49,0,0,1,27.71,28.79q10.05,18.35,10.07,42.1Q2663.79,2149.73,2654.08,2168.81Z"/><path class="cls-1" d="M3227.59,1991.59q-24.81-13-55.51-13-30.1,0-55.21,13.29a112,112,0,0,0-39,33.93,98,98,0,0,0-36.9-34.23q-24.23-13-54.32-13t-54.31,13.29a100.38,100.38,0,0,0-27.16,21.56v-28.94h-65v283.4h65V2099.05q0-18.9,8.26-32.18a55.07,55.07,0,0,1,22.14-20.37c9.23-4.72,19.78-7.09,31.58-7.09q26,0,43.7,15.65t17.71,44v168.86h64.94V2099.05q0-18.9,8.26-32.18a54.81,54.81,0,0,1,22.45-20.37,69,69,0,0,1,31.3-7.09q26,0,43.68,15.65t17.71,44v168.86h65v-183q0-33.06-14.75-56.68A101.46,101.46,0,0,0,3227.59,1991.59Z"/><path class="cls-1" d="M3525.45,2146.29q0,31.29-15.06,48.11T3467,2211.23q-18.32,0-31.6-7.67a48.81,48.81,0,0,1-20.07-22.15q-6.78-14.46-6.79-35.12V1984.51h-65v164.73q0,36.62,15.64,64.65a113.15,113.15,0,0,0,43.7,44q28,15.93,64.07,15.93,36.59,0,64.34-15.65a111.47,111.47,0,0,0,43.41-43.69q15.61-28,15.65-65.23V1984.51h-65Z"/><path class="cls-1" d="M3863.3,1994.84q-24.81-16.23-56.68-16.24-31.32,0-56.4,14.47a104.53,104.53,0,0,0-28,23.35v-31.91h-65v283.4h65V2104.36q0-18.89,8.26-33.65a58.8,58.8,0,0,1,23-23q14.76-8.25,33.66-8.27,28.35,0,46.35,18.31t18,46.64v163.55h64.94V2090.19q0-27.75-14.17-53.43A117,117,0,0,0,3863.3,1994.84Z"/><path class="cls-1" d="M4015.39,1854.61q-16.54,0-27.46,11.22T3977,1893.58q0,16.55,10.92,27.75t27.46,11.22q17.12,0,27.75-11.22t10.62-27.75q0-16.53-10.62-27.75T4015.39,1854.61Z"/><rect class="cls-1" x="3982.92" y="1984.51" width="64.94" height="283.4"/><path class="cls-1" d="M4324.93,2016a106.71,106.71,0,0,0-29.22-23.52q-25.11-13.86-57.57-13.87-38.39,0-69.37,19.78a141.59,141.59,0,0,0-49,53.14q-18,33.36-18,75.27,0,41.34,18,74.7a139.26,139.26,0,0,0,49,52.84q31,19.49,69.37,19.48,32.47,0,57.87-13.87a104.39,104.39,0,0,0,28.92-23v31h65v-425.1h-65Zm-5.9,155.09a74.83,74.83,0,0,1-28.05,30.41q-18,10.92-42.22,10.92-23.61,0-41.62-10.92a76.75,76.75,0,0,1-28.34-30.41q-10.34-19.48-10.33-44.87t10.33-44.87a76.75,76.75,0,0,1,28.34-30.41q18-10.92,41.62-10.92,24.21,0,42.22,10.92a74.83,74.83,0,0,1,28.05,30.41q10,19.47,10,44.87T4319,2171.08Z"/><path class="cls-1" d="M4667.43,2016a106.57,106.57,0,0,0-29.22-23.52q-25.11-13.86-57.57-13.87-38.39,0-69.37,19.78a141.67,141.67,0,0,0-49,53.14q-18,33.36-18,75.27,0,41.34,18,74.7t49,52.84q31,19.49,69.37,19.48,32.47,0,57.87-13.87a104.39,104.39,0,0,0,28.92-23v31h65v-283.4h-65Zm-18,172.21q-22.14,24.23-58.16,24.21-23.62,0-41.63-10.92a76.75,76.75,0,0,1-28.34-30.41Q4511,2151.6,4511,2126.21t10.33-44.87a76.75,76.75,0,0,1,28.34-30.41q18-10.92,41.63-10.92,24.19,0,42.21,10.92a74.83,74.83,0,0,1,28.05,30.41q10,19.47,10,44.87Q4671.57,2164,4649.43,2188.2Z"/><path class="cls-1" d="M5010.59,1842.81V2016a106.71,106.71,0,0,0-29.22-23.52q-25.11-13.86-57.57-13.87-38.4,0-69.37,19.78a141.51,141.51,0,0,0-49,53.14q-18,33.36-18,75.27,0,41.34,18,74.7a139.18,139.18,0,0,0,49,52.84q31,19.49,69.37,19.48,32.47,0,57.87-13.87a104.39,104.39,0,0,0,28.92-23v31h65v-425.1Zm-5.9,328.27a74.83,74.83,0,0,1-28,30.41q-18,10.92-42.22,10.92-23.61,0-41.62-10.92a76.85,76.85,0,0,1-28.35-30.41q-10.32-19.48-10.32-44.87t10.32-44.87a76.85,76.85,0,0,1,28.35-30.41q18-10.92,41.62-10.92,24.21,0,42.22,10.92a74.83,74.83,0,0,1,28,30.41q10,19.47,10,44.87T5004.69,2171.08Z"/><path class="cls-2" d="M1028.45,2546.55c-30.73,7-64.21-12.45-73.71-42.4-7.11-20.77-2.64-45.07,11.69-61.79a64.1,64.1,0,0,1,55-22.65c20.82,1.68,40.23,14.49,50.27,32.78a64.11,64.11,0,0,1,4.4,52.49C1069,2525.91,1050.13,2542.28,1028.45,2546.55Z"/><path class="cls-2" d="M1241.87,1772.52c18,19.2,22,49.82,9.45,72.92-27,46.43-53.63,93-80.46,139.51a50.27,50.27,0,0,1-44,25.39q-111,0-222.06.05c-17.75.34-35.4-9.46-44.06-25q-40-69.3-79.89-138.57c-10.57-18.31-10.91-41.87-1.19-60.6,9.63-19.33,29.66-32.8,51.16-34.7,24.34-2.57,49.29,10.3,61.47,31.5,32.78,56.47,65.19,113.17,98.06,169.58,10.91,18,40.58,17.77,51.07-.58,31.12-53.49,61.89-107.19,92.9-160.77,7.66-14.66,19-28,34.74-34.37C1193.42,1745.88,1224.11,1752.53,1241.87,1772.52Z"/><path class="cls-2" d="M1207.91,2498.13c-25.61,5.94-54.14-5.86-67.88-28.28-26.73-46.56-53.75-93-80.59-139.44a50.26,50.26,0,0,1,0-50.82q55.48-96.16,111-192.34c8.58-15.53,25.9-25.92,43.69-25.66l159.95.11c21.13,0,41.72,11.48,53.07,29.27,11.93,18,13.57,42.09,4.47,61.65-9.94,22.37-33.56,37.54-58,37.48-65.29.16-130.61-.13-195.89.13-21.06.45-35.68,26.27-25,44.52,30.76,53.7,61.89,107.2,92.78,160.84,8.87,14,14.78,30.5,12.4,47.27C1255.2,2469.49,1234.09,2492.74,1207.91,2498.13Z"/><path class="cls-2" d="M849.61,2498.23c-22.55,4.74-47.16-4-61.78-21.76-17-19.8-19.72-50.09-6.7-72.66,32.31-57.16,65.92-113.6,98.12-170.78,9.91-19.41-7.22-44.52-28.78-43.14q-96.59-.1-193.22,0a64.19,64.19,0,0,1-60.71-83c7.9-27,35.16-46.72,63.35-45.33,48,.1,96-.21,143.92-.11,9.42.13,19.09-.86,28.15,2.23a50.8,50.8,0,0,1,28.85,23.54q55.44,96.17,111,192.31a50.34,50.34,0,0,1-.13,50.95c-26.84,46.43-53.81,92.75-80.49,139.21A64.16,64.16,0,0,1,849.61,2498.23Z"/><path class="cls-2" d="M1338.59,2367.27c-21.32,4.76-44.67-2.65-59.61-18.5a64.42,64.42,0,0,1-15.51-61.36c6.43-24.14,28.12-43.32,52.94-46.51,23-3.53,47.45,6.85,60.92,25.79,13.6,18.44,16.24,44.31,6.17,64.95A64.29,64.29,0,0,1,1338.59,2367.27Z"/><path class="cls-2" d="M718.72,2367.29c-21.21,4.71-44.41-2.74-59.4-18.41-16-16.4-22-41.64-15-63.46,8.5-29.48,40.28-49.65,70.57-44.47,30.47,3.85,55.27,32.18,54.93,62.91C770.7,2333.68,748,2361.77,718.72,2367.29Z"/><path class="cls-2" d="M1341.42,2009.67a64.24,64.24,0,1,1,44.54-41C1379.24,1988.72,1361.82,2004.47,1341.42,2009.67Z"/><path class="cls-2" d="M721.52,2009.07A64.19,64.19,0,0,1,675,1890.58c23.57-13.47,55.45-9.5,74.91,9.44,17.84,16.38,24.88,43.37,17.21,66.36A64.46,64.46,0,0,1,721.52,2009.07Z"/><path class="cls-2" d="M1027.25,1831.46c-35.18,7.54-72.33-20.21-75.39-56-4.86-34.55,23.39-69,58.15-71.09,35-4.08,69,25.53,69.71,60.68C1082.07,1796.28,1058,1826.39,1027.25,1831.46Z"/><path class="cls-2" d="M1097.39,2061.41H934.19a17.07,17.07,0,0,0-14.78,25.6l81.6,141.34a17.07,17.07,0,0,0,29.56,0l81.6-141.34A17.07,17.07,0,0,0,1097.39,2061.41Z"/></svg>