<?xml version="1.0" encoding="utf-8"?>
<!-- Generator: Adobe Illustrator 25.4.8, SVG Export Plug-In . SVG Version: 6.00 Build 0)  -->
<svg version="1.1" id="Capa_1" xmlns="http://www.w3.org/2000/svg" xmlns:xlink="http://www.w3.org/1999/xlink" x="0px" y="0px"
	 viewBox="0 0 5669.29 4251.97" style="enable-background:new 0 0 5669.29 4251.97;" xml:space="preserve">
<style type="text/css">
	.st0{fill:#0B501B;}
	.st1{fill:#00C653;}
</style>
<g>
	<g>
		<path class="st0" d="M1404.13,2486.48c-26.39-14.86-57.1-22.31-92.11-22.31c-35.52,0-67.42,7.92-95.72,23.75
			c-28.32,15.83-50.63,37.55-66.94,65.13c-16.31,27.6-24.46,58.65-24.46,93.2c0,35.51,8.39,67.18,25.19,95
			c16.79,27.83,39.81,49.55,69.08,65.13c29.27,15.58,62.85,23.39,100.75,23.39c29.75,0,56.86-4.93,81.32-14.76
			c24.47-9.82,45.35-25.06,62.61-45.7l-61.16-60.45c-10.56,11.99-22.8,20.99-36.7,26.99c-13.93,6.01-29.28,9-46.07,9
			c-18.71,0-34.89-3.96-48.57-11.88c-13.67-7.92-24.24-19.3-31.66-34.18c-2.32-4.62-4.27-9.51-5.87-14.64l250.19-1.2
			c2.39-8.64,3.95-16.43,4.67-23.39c0.72-6.95,1.08-13.79,1.08-20.51c0-34.05-7.67-64.28-23.02-90.68
			C1451.37,2522,1430.51,2501.37,1404.13,2486.48z M1268.47,2560.61c12.7-8.15,27.71-12.24,44.98-12.24
			c15.82,0,29.38,3.6,40.65,10.8c11.28,7.19,19.79,17.39,25.55,30.58c2.28,5.23,4.14,10.97,5.59,17.2l-151.49,0.86
			c1.44-4.71,3.17-9.17,5.2-13.39C1245.9,2580.04,1255.74,2568.77,1268.47,2560.61z"/>
		<path class="st0" d="M1751.71,2721.82c-11.28,4.8-24.1,7.19-38.5,7.19c-14.87,0-28.55-3.48-41.01-10.43
			c-12.49-6.95-22.21-16.66-29.16-29.14c-6.95-12.47-10.43-26.87-10.43-43.18c0-15.84,3.48-29.87,10.43-42.1
			c6.95-12.24,16.55-21.83,28.8-28.79c12.23-6.95,26.02-10.43,41.37-10.43c13.92,0,26.27,2.16,37.06,6.47
			c10.81,4.32,20.27,11.04,28.42,20.16l71.25-71.97c-17.74-18.23-38.03-32.02-60.8-41.38c-22.8-9.36-48.12-14.04-75.93-14.04
			c-36.47,0-69.33,7.92-98.6,23.75c-29.27,15.83-52.29,37.55-69.08,65.13c-16.8,27.6-25.19,58.9-25.19,93.92
			c0,34.55,8.28,65.74,24.83,93.56c16.54,27.83,39.45,49.66,68.72,65.49c29.27,15.84,62.13,23.75,98.6,23.75
			c28.78,0,54.57-4.93,77.37-14.76c22.77-9.82,43.54-24.34,62.25-43.53l-71.25-70.53
			C1772.7,2710.07,1762.98,2717.03,1751.71,2721.82z"/>
		<path class="st0" d="M2151.71,2487.93c-29.03-15.84-61.53-23.75-97.52-23.75c-36.95,0-69.81,8.04-98.6,24.11
			c-28.78,16.08-51.46,37.78-68,65.13c-16.55,27.35-24.83,58.06-24.83,92.12c0,34.54,8.39,65.74,25.19,93.56
			c16.79,27.83,39.58,49.9,68.36,66.2c28.78,16.32,61.41,24.47,97.88,24.47c36.45,0,69.09-8.15,97.88-24.47
			c28.78-16.31,51.57-38.26,68.38-65.85c16.77-27.59,25.18-58.9,25.18-93.92c0-34.06-8.4-64.88-25.18-92.48
			C2203.64,2525.47,2180.73,2503.76,2151.71,2487.93z M2122.93,2689.8c-6.48,12.71-15.73,22.43-27.71,29.14
			c-12.01,6.72-25.68,10.07-41.03,10.07c-15.35,0-29.03-3.35-41.03-10.07c-11.99-6.72-21.35-16.43-28.07-29.14
			c-6.72-12.71-10.07-27.23-10.07-43.54c0-15.35,3.36-29.26,10.07-41.74c6.72-12.47,16.07-22.19,28.07-29.15
			c11.99-6.95,25.68-10.43,41.03-10.43c15.35,0,28.89,3.48,40.67,10.43c11.74,6.97,20.97,16.55,27.71,28.79
			c6.7,12.23,10.07,26.26,10.07,42.1C2132.64,2662.57,2129.39,2677.08,2122.93,2689.8z"/>
		<path class="st0" d="M2696.43,2512.58c-16.54-8.65-35.05-12.99-55.51-12.99c-20.07,0-38.48,4.43-55.21,13.28
			c-15.66,8.29-28.64,19.61-38.96,33.94c-9.29-14.6-21.58-26.01-36.9-34.23c-16.15-8.65-34.25-12.99-54.32-12.99
			c-20.08,0-38.19,4.43-54.32,13.28c-10.46,5.74-19.51,12.94-27.16,21.57v-28.95h-64.96v283.4h64.96v-168.86
			c0-12.6,2.75-23.33,8.26-32.18c5.5-8.86,12.88-15.64,22.15-20.37c9.23-4.72,19.77-7.09,31.58-7.09c17.32,0,31.88,5.22,43.7,15.65
			c11.81,10.43,17.71,25.09,17.71,43.99v168.86h64.94v-168.86c0-12.6,2.75-23.33,8.26-32.18c5.51-8.86,12.99-15.64,22.44-20.37
			s19.87-7.09,31.3-7.09c17.3,0,31.88,5.22,43.68,15.65c11.81,10.43,17.71,25.09,17.71,43.99v168.86h64.96v-183.03
			c0-22.04-4.94-40.93-14.76-56.68C2726.14,2533.44,2712.96,2521.24,2696.43,2512.58z"/>
		<path class="st0" d="M2994.3,2667.27c0,20.87-5.01,36.9-15.06,48.12c-10.03,11.21-24.5,16.83-43.39,16.83
			c-12.21,0-22.74-2.56-31.59-7.68c-8.86-5.11-15.56-12.49-20.07-22.15c-4.53-9.64-6.79-21.34-6.79-35.12V2505.5h-64.96v164.73
			c0,24.41,5.22,45.96,15.65,64.65c10.43,18.69,24.99,33.36,43.7,43.99c18.69,10.63,40.04,15.94,64.06,15.94
			c24.4,0,45.84-5.22,64.35-15.65c18.51-10.42,32.97-24.99,43.4-43.69c10.42-18.69,15.65-40.44,15.65-65.24V2505.5h-64.96V2667.27z"
			/>
		<path class="st0" d="M3332.15,2515.83c-16.54-10.82-35.42-16.23-56.68-16.23c-20.88,0-39.67,4.82-56.4,14.46
			c-10.89,6.28-20.23,14.08-28.03,23.36v-31.92h-64.96v283.4h64.96v-163.55c0-12.59,2.75-23.81,8.26-33.65
			c5.5-9.84,13.18-17.52,23.02-23.03c9.84-5.51,21.05-8.27,33.66-8.27c18.9,0,34.34,6.11,46.35,18.3
			c11.99,12.21,18.01,27.75,18.01,46.64v163.55h64.94v-177.72c0-18.5-4.72-36.31-14.17-53.44
			C3361.67,2540.62,3348.67,2526.66,3332.15,2515.83z"/>
		<path class="st0" d="M3484.23,2375.6c-11.03,0-20.18,3.74-27.46,11.21c-7.28,7.48-10.92,16.73-10.92,27.75
			c0,11.03,3.64,20.28,10.92,27.75c7.28,7.48,16.43,11.21,27.46,11.21c11.42,0,20.66-3.73,27.75-11.21
			c7.09-7.47,10.62-16.73,10.62-27.75c0-11.02-3.53-20.27-10.62-27.75C3504.9,2379.34,3495.65,2375.6,3484.23,2375.6z"/>
		<rect x="3451.76" y="2505.5" class="st0" width="64.94" height="283.4"/>
		<path class="st0" d="M3793.78,2536.98c-8.17-9.41-17.9-17.26-29.22-23.52c-16.74-9.24-35.92-13.87-57.57-13.87
			c-25.6,0-48.71,6.59-69.37,19.77c-20.66,13.2-37.01,30.91-49.01,53.14c-12.01,22.25-18.01,47.34-18.01,75.28
			c0,27.56,6,52.46,18.01,74.69c11.99,22.24,28.35,39.86,49.01,52.84s43.78,19.48,69.37,19.48c21.65,0,40.93-4.63,57.86-13.88
			c11.25-6.14,20.89-13.83,28.92-23.03v31.01h64.96v-425.1h-64.96V2536.98z M3787.88,2692.07c-6.7,12.99-16.04,23.13-28.05,30.41
			c-12.01,7.29-26.08,10.92-42.22,10.92c-15.74,0-29.61-3.64-41.62-10.92c-12.01-7.28-21.46-17.41-28.35-30.41
			c-6.89-12.99-10.32-27.94-10.32-44.87c0-16.92,3.44-31.88,10.32-44.87c6.89-12.99,16.34-23.12,28.35-30.41
			c12.01-7.28,25.88-10.92,41.62-10.92c16.13,0,30.21,3.65,42.22,10.92c12.01,7.29,21.35,17.41,28.05,30.41
			c6.68,12.99,10.04,27.95,10.04,44.87C3797.92,2664.13,3794.56,2679.08,3787.88,2692.07z"/>
		<path class="st0" d="M4136.28,2536.98c-8.17-9.41-17.9-17.26-29.22-23.52c-16.74-9.24-35.92-13.87-57.57-13.87
			c-25.6,0-48.71,6.59-69.38,19.77c-20.66,13.2-37.01,30.91-49.01,53.14c-12.01,22.25-18.01,47.34-18.01,75.28
			c0,27.56,6,52.46,18.01,74.69c11.99,22.24,28.35,39.86,49.01,52.84s43.78,19.48,69.38,19.48c21.65,0,40.93-4.63,57.86-13.88
			c11.25-6.14,20.89-13.83,28.92-23.03v31.01h64.96v-283.4h-64.96V2536.98z M4118.28,2709.19c-14.76,16.14-34.16,24.21-58.16,24.21
			c-15.74,0-29.61-3.64-41.62-10.92c-12.01-7.28-21.46-17.41-28.35-30.41c-6.89-12.99-10.32-27.94-10.32-44.87
			c0-16.92,3.44-31.88,10.32-44.87c6.89-12.99,16.34-23.12,28.35-30.41c12.01-7.28,25.88-10.92,41.62-10.92
			c16.13,0,30.21,3.65,42.22,10.92c12.01,7.29,21.35,17.41,28.05,30.41c6.68,12.99,10.04,27.95,10.04,44.87
			C4140.42,2672.39,4133.03,2693.06,4118.28,2709.19z"/>
		<path class="st0" d="M4479.44,2363.79v173.19c-8.17-9.41-17.9-17.26-29.22-23.52c-16.74-9.24-35.92-13.87-57.57-13.87
			c-25.6,0-48.71,6.59-69.38,19.77c-20.66,13.2-37.01,30.91-49.01,53.14c-12.01,22.25-18.01,47.34-18.01,75.28
			c0,27.56,6,52.46,18.01,74.69c11.99,22.24,28.35,39.86,49.01,52.84s43.78,19.48,69.38,19.48c21.65,0,40.93-4.63,57.86-13.88
			c11.25-6.14,20.89-13.83,28.92-23.03v31.01h64.96v-425.1H4479.44z M4473.54,2692.07c-6.7,12.99-16.04,23.13-28.05,30.41
			c-12.01,7.29-26.08,10.92-42.22,10.92c-15.74,0-29.61-3.64-41.62-10.92c-12.01-7.28-21.46-17.41-28.35-30.41
			c-6.89-12.99-10.32-27.94-10.32-44.87c0-16.92,3.44-31.88,10.32-44.87c6.89-12.99,16.34-23.12,28.35-30.41
			c12.01-7.28,25.88-10.92,41.62-10.92c16.13,0,30.21,3.65,42.22,10.92c12.01,7.29,21.35,17.41,28.05,30.41
			c6.68,12.99,10.04,27.95,10.04,44.87C4483.58,2664.13,4480.22,2679.08,4473.54,2692.07z"/>
	</g>
	<g>
		<path class="st1" d="M2850.63,2251.4c-38.22,8.72-79.85-15.48-91.65-52.72c-8.85-25.82-3.29-56.04,14.54-76.82
			c16.36-19.84,42.77-30.77,68.4-28.17c25.89,2.08,50.02,18.02,62.51,40.75c11.03,19.65,13.14,44.07,5.46,65.28
			C2901.01,2225.74,2877.59,2246.1,2850.63,2251.4z"/>
		<path class="st1" d="M3116,1288.95c22.31,23.88,27.35,61.95,11.75,90.67c-33.52,57.73-66.69,115.68-100.05,173.48
			c-10.83,19.43-32.51,31.95-54.75,31.57c-92.03,0.03-184.05,0.02-276.11,0.06c-22.07,0.42-44.01-11.77-54.79-31.09
			c-33.13-57.45-66.22-114.89-99.33-172.31c-13.14-22.76-13.57-52.07-1.48-75.35c11.96-24.03,36.88-40.78,63.61-43.15
			c30.26-3.2,61.28,12.8,76.43,39.17c40.76,70.21,81.06,140.72,121.93,210.86c13.57,22.4,50.46,22.09,63.5-0.72
			c38.7-66.51,76.95-133.29,115.52-199.91c9.53-18.23,23.65-34.88,43.19-42.74C3055.76,1255.83,3093.92,1264.1,3116,1288.95z"/>
		<g>
			<path class="st1" d="M3073.78,2191.2c-31.84,7.38-67.33-7.29-84.4-35.16c-33.24-57.89-66.84-115.59-100.21-173.39
				c-11.42-19.09-11.42-44.14,0.03-63.2c45.99-79.72,92.01-159.4,138-239.15c10.67-19.32,32.2-32.23,54.32-31.91
				c66.32,0.03,132.6,0.1,198.89,0.13c26.28,0,51.88,14.28,65.99,36.4c14.83,22.38,16.88,52.33,5.56,76.66
				c-12.36,27.81-41.73,46.67-72.14,46.61c-81.18,0.2-162.4-0.16-243.58,0.16c-26.18,0.55-44.36,32.65-31.13,55.36
				c38.25,66.77,76.95,133.29,115.36,199.99c11.03,17.37,18.38,37.92,15.42,58.77C3132.58,2155.59,3106.33,2184.5,3073.78,2191.2z"
				/>
			<path class="st1" d="M2628.25,2191.33c-28.04,5.89-58.64-4.94-76.82-27.06c-21.08-24.62-24.52-62.28-8.33-90.35
				c40.17-71.07,81.96-141.25,122-212.35c12.33-24.13-8.98-55.36-35.78-53.63c-80.08-0.1-160.18,0-240.26-0.03
				c-25.43,0-50.45-13.24-64.72-34.28c-13.95-19.68-17.89-45.89-10.77-68.89c9.82-33.6,43.71-58.09,78.77-56.37
				c59.65,0.13,119.3-0.26,178.95-0.13c11.71,0.16,23.74-1.07,35,2.76c15.16,4.68,28.13,15.51,35.87,29.27
				c45.96,79.72,92.08,159.4,138,239.12c11.48,19.16,11.32,44.3-0.16,63.36c-33.37,57.73-66.9,115.33-100.08,173.1
				C2668.52,2174.09,2649.36,2187.17,2628.25,2191.33z"/>
		</g>
		<path class="st1" d="M3236.27,2028.48c-26.51,5.92-55.55-3.28-74.12-22.99c-19.19-19.71-26.8-49.8-19.29-76.3
			c8-30.02,34.96-53.86,65.83-57.83c28.62-4.39,59,8.52,75.75,32.07c16.91,22.93,20.2,55.1,7.68,80.76
			C3281.87,2006.69,3260.43,2023.47,3236.27,2028.48z"/>
		<path class="st1" d="M2465.5,2028.51c-26.38,5.85-55.23-3.42-73.86-22.9c-19.84-20.39-27.39-51.78-18.6-78.9
			c10.57-36.66,50.09-61.73,87.75-55.29c37.89,4.78,68.72,40.01,68.3,78.22C2530.13,1986.72,2501.96,2021.65,2465.5,2028.51z"/>
		<path class="st1" d="M3239.78,1583.84c-23.16,6.05-48.92,0.91-67.91-13.63c-19.61-14.54-31.81-38.54-31.78-62.94
			c-0.29-21.47,8.55-42.87,23.94-57.83c17.4-17.27,43.16-25.76,67.39-21.92c22.83,3.35,44.04,17.01,56.14,36.72
			c12.78,20.17,15.77,46.18,7.61,68.66C3286.81,1557.78,3265.15,1577.36,3239.78,1583.84z"/>
		<path class="st1" d="M2468.98,1583.09c-24.33,6.37-51.45-0.03-70.58-16.33c-20.13-16.69-31-43.75-28-69.73
			c2.54-25.47,18.31-49.05,40.79-61.28c29.3-16.75,68.95-11.81,93.15,11.74c22.18,20.36,30.93,53.93,21.4,82.52
			C2517.64,1555.93,2495.36,1576.74,2468.98,1583.09z"/>
		<path class="st1" d="M2849.13,1362.24c-43.75,9.37-89.93-25.14-93.74-69.64c-6.05-42.97,29.08-85.73,72.3-88.4
			c43.45-5.07,85.77,31.74,86.68,75.46C2917.3,1318.5,2887.41,1355.93,2849.13,1362.24z"/>
		<path class="st1" d="M2936.36,1648.17h-202.94c-16.33,0-26.54,17.68-18.38,31.83l101.47,175.75c8.17,14.15,28.58,14.15,36.75,0
			L2954.73,1680C2962.9,1665.85,2952.69,1648.17,2936.36,1648.17z"/>
	</g>
</g>
</svg>
