<svg id="Capa_1" data-name="Capa 1" xmlns="http://www.w3.org/2000/svg" viewBox="0 0 230.01 29.47"><defs><style>.cls-1{fill:#fff;}</style></defs><path class="cls-1" d="M13,29.47a13.65,13.65,0,0,1-6.72-1.64,12.22,12.22,0,0,1-4.63-4.45A12.37,12.37,0,0,1,0,16.94a12.33,12.33,0,0,1,1.66-6.39A12.19,12.19,0,0,1,6.19,6.09a12.79,12.79,0,0,1,6.44-1.63,12,12,0,0,1,6,1.53,10.85,10.85,0,0,1,4.16,4.26,12.74,12.74,0,0,1,1.49,6.19c0,.43,0,.87-.05,1.31A9.51,9.51,0,0,1,24,19.21l-20.16.05V14.41L21,14.36l-2.68,2a8.58,8.58,0,0,0-.74-3.56,4.91,4.91,0,0,0-1.93-2.18,5.84,5.84,0,0,0-3.07-.75,6.56,6.56,0,0,0-3.37.85A5.51,5.51,0,0,0,7,13.15a8.3,8.3,0,0,0-.77,3.69,8.24,8.24,0,0,0,.82,3.79,5.62,5.62,0,0,0,2.35,2.45,7.3,7.3,0,0,0,3.57.84,9,9,0,0,0,3.31-.59,6.59,6.59,0,0,0,2.58-1.89l3.86,3.87a11.9,11.9,0,0,1-4.31,3.12A13.85,13.85,0,0,1,13,29.47Z"/><path class="cls-1" d="M39.62,29.47a13.08,13.08,0,0,1-6.54-1.66,12.29,12.29,0,0,1-4.6-4.51A12.1,12.1,0,0,1,26.79,17a12.31,12.31,0,0,1,1.69-6.42,12.07,12.07,0,0,1,4.6-4.48,14,14,0,0,1,11.79-.62,11.87,11.87,0,0,1,4.16,3l-4.26,4.26a5.59,5.59,0,0,0-2.2-1.64,7.56,7.56,0,0,0-2.9-.54,6.19,6.19,0,0,0-3.19.82,5.69,5.69,0,0,0-2.21,2.25,6.74,6.74,0,0,0-.79,3.32,6.76,6.76,0,0,0,.79,3.32,6,6,0,0,0,2.21,2.27,6.11,6.11,0,0,0,3.19.85,7.14,7.14,0,0,0,2.92-.57,6.83,6.83,0,0,0,2.28-1.66L49,25.36a11.74,11.74,0,0,1-4.14,3A12.86,12.86,0,0,1,39.62,29.47Z"/><path class="cls-1" d="M63.34,29.47a12.92,12.92,0,0,1-6.51-1.66,12.31,12.31,0,0,1-6.26-10.92,12,12,0,0,1,1.68-6.32,12.46,12.46,0,0,1,4.58-4.45,12.82,12.82,0,0,1,6.51-1.66,13.15,13.15,0,0,1,6.57,1.63,12.46,12.46,0,0,1,4.6,4.46,12,12,0,0,1,1.71,6.34,12.32,12.32,0,0,1-6.29,10.92A13.17,13.17,0,0,1,63.34,29.47Zm0-6.09a6.25,6.25,0,0,0,3.25-.85,5.87,5.87,0,0,0,2.18-2.27,7,7,0,0,0,.76-3.32,6.64,6.64,0,0,0-.81-3.32,5.92,5.92,0,0,0-5.38-3.07,6.11,6.11,0,0,0-3.17.82A5.61,5.61,0,0,0,58,13.62a7,7,0,0,0-.77,3.32A7,7,0,0,0,58,20.26a5.86,5.86,0,0,0,2.15,2.27A6,6,0,0,0,63.34,23.38Z"/><path class="cls-1" d="M81.3,27.24V9.08h4.16V27.24Zm12.06,0V16.42a3.56,3.56,0,0,0-1.13-2.82,4.07,4.07,0,0,0-2.8-1,4.39,4.39,0,0,0-2,.45A3.45,3.45,0,0,0,86,14.36a3.74,3.74,0,0,0-.53,2.06l-1.63-.91a6.79,6.79,0,0,1,.91-3.59A6.37,6.37,0,0,1,87.2,9.55a7.17,7.17,0,0,1,3.48-.85,7.33,7.33,0,0,1,3.48.83,6.38,6.38,0,0,1,2.46,2.35,7,7,0,0,1,.91,3.63V27.24Zm12.07,0V16.42a3.59,3.59,0,0,0-1.13-2.82,4.07,4.07,0,0,0-2.8-1,4.49,4.49,0,0,0-2,.45,3.48,3.48,0,0,0-1.43,1.31,3.74,3.74,0,0,0-.53,2.06l-2.35-.91a7.56,7.56,0,0,1,1.21-3.59A7.22,7.22,0,0,1,99,9.55a7.9,7.9,0,0,1,7.09,0,6.53,6.53,0,0,1,2.54,2.35,6.72,6.72,0,0,1,.94,3.63V27.24Z"/><path class="cls-1" d="M122.27,27.62a8.19,8.19,0,0,1-4.11-1,7.3,7.3,0,0,1-2.8-2.82,8.36,8.36,0,0,1-1-4.15V9.08h4.16V19.45A5.28,5.28,0,0,0,119,21.7a3.21,3.21,0,0,0,1.28,1.42,4.09,4.09,0,0,0,2,.49,3.54,3.54,0,0,0,2.78-1.08,4.49,4.49,0,0,0,1-3.08V9.08h4.16V19.63a8.4,8.4,0,0,1-1,4.18,7.06,7.06,0,0,1-2.78,2.8A8.22,8.22,0,0,1,122.27,27.62Z"/><path class="cls-1" d="M135.32,27.24V9.08h4.16V27.24Zm12.45,0V16.76a4.09,4.09,0,0,0-1.16-3,4,4,0,0,0-3-1.17,4.23,4.23,0,0,0-2.15.53A3.67,3.67,0,0,0,140,14.6a4.37,4.37,0,0,0-.53,2.16l-1.63-.91a7.45,7.45,0,0,1,.91-3.69,6.73,6.73,0,0,1,2.52-2.53,7.06,7.06,0,0,1,3.61-.93,6.51,6.51,0,0,1,3.63,1,7.58,7.58,0,0,1,2.5,2.69,7,7,0,0,1,.91,3.42V27.24Z"/><path class="cls-1" d="M159.23,5.75A2.35,2.35,0,0,1,157.47,5a2.44,2.44,0,0,1-.7-1.78,2.41,2.41,0,0,1,.7-1.77,2.54,2.54,0,0,1,3.54,0,2.48,2.48,0,0,1,.68,1.77A2.5,2.5,0,0,1,161,5,2.35,2.35,0,0,1,159.23,5.75Zm-2.08,21.49V9.08h4.16V27.24Z"/><path class="cls-1" d="M174.51,27.62a8.17,8.17,0,0,1-4.44-1.25A8.85,8.85,0,0,1,166.93,23a9.88,9.88,0,0,1-1.16-4.78,10,10,0,0,1,1.16-4.83,9,9,0,0,1,3.14-3.4,8,8,0,0,1,4.44-1.27,7.52,7.52,0,0,1,3.69.89A6.79,6.79,0,0,1,180.75,12a6.63,6.63,0,0,1,.95,3.52v5.22a6.73,6.73,0,0,1-.93,3.52,6.65,6.65,0,0,1-2.55,2.44A7.62,7.62,0,0,1,174.51,27.62Zm.68-3.94a5.09,5.09,0,0,0,2.71-.7A4.63,4.63,0,0,0,179.69,21a6.16,6.16,0,0,0,.65-2.87,6.23,6.23,0,0,0-.65-2.88,4.67,4.67,0,0,0-1.79-1.94,5.09,5.09,0,0,0-2.71-.7,5,5,0,0,0-2.66.7,4.87,4.87,0,0,0-1.82,1.94,6.11,6.11,0,0,0-.66,2.88,6,6,0,0,0,.66,2.87A4.83,4.83,0,0,0,172.53,23,5,5,0,0,0,175.19,23.68Zm9,3.56h-4.16V22.36l.72-4.43-.72-4.39V0h4.16Z"/><path class="cls-1" d="M197.4,27.62A8.23,8.23,0,0,1,193,26.37,8.92,8.92,0,0,1,189.81,23a9.88,9.88,0,0,1-1.15-4.78,10,10,0,0,1,1.15-4.83A9.1,9.1,0,0,1,193,10,8.08,8.08,0,0,1,197.4,8.7a7.52,7.52,0,0,1,3.69.89A6.79,6.79,0,0,1,203.64,12a6.63,6.63,0,0,1,1,3.52v5.22a6.73,6.73,0,0,1-.93,3.52,6.65,6.65,0,0,1-2.55,2.44A7.65,7.65,0,0,1,197.4,27.62Zm.68-3.94a4.8,4.8,0,0,0,3.73-1.55,5.68,5.68,0,0,0,1.42-4,6.23,6.23,0,0,0-.65-2.88,4.8,4.8,0,0,0-1.79-1.94,5.11,5.11,0,0,0-2.71-.7,5,5,0,0,0-2.67.7,4.84,4.84,0,0,0-1.81,1.94,6.11,6.11,0,0,0-.66,2.88A6,6,0,0,0,193.6,21,4.81,4.81,0,0,0,195.41,23,5,5,0,0,0,198.08,23.68ZM203,27.24V22.36l.72-4.43L203,13.54V9.08h4.16V27.24Z"/><path class="cls-1" d="M220.29,27.62a8.23,8.23,0,0,1-4.45-1.25A8.92,8.92,0,0,1,212.7,23a9.88,9.88,0,0,1-1.15-4.78,10,10,0,0,1,1.15-4.83,9.1,9.1,0,0,1,3.14-3.4,8.08,8.08,0,0,1,4.45-1.27,7.57,7.57,0,0,1,3.69.89A6.79,6.79,0,0,1,226.53,12a6.62,6.62,0,0,1,.94,3.52v5.22a6.73,6.73,0,0,1-.92,3.52A6.61,6.61,0,0,1,224,26.73,7.61,7.61,0,0,1,220.29,27.62Zm.68-3.94a5.08,5.08,0,0,0,2.7-.7,4.72,4.72,0,0,0,1.8-1.95,6.16,6.16,0,0,0,.64-2.87,6.23,6.23,0,0,0-.64-2.88,4.75,4.75,0,0,0-1.8-1.94,5.08,5.08,0,0,0-2.7-.7,5,5,0,0,0-2.67.7,4.94,4.94,0,0,0-1.82,1.94,6.11,6.11,0,0,0-.66,2.88,6,6,0,0,0,.66,2.87A4.9,4.9,0,0,0,218.3,23,5,5,0,0,0,221,23.68Zm9,3.56h-4.16V22.36l.72-4.43-.72-4.39V0H230Z"/></svg>